# xmcd
#
# Track frame offsets: 
#        150
#        13927
#        31265
#        47882
#        65717
#        92307
#        105677
#        124747
#        143417
#        162840
#        182612
#        198515
#        216470
#        233602
#        252172
#        271237
#        288680
#        310355
#
# Disc length: 4387 seconds
#
# Revision: 10
# Processed by: cddbd v1.5.2PL0 Copyright (c) Steve Scherf et al.
# Submitted via: ExactAudioCopy v0.99pb5
#
DISCID=04112112
DTITLE=I Muvrini - A Strada
DYEAR=2000
DGENRE=Corsican Folk
TTITLE0=Dumanda (Demande)
TTITLE1=Di (Dis)
TTITLE2=Un So Micca Venuti (Ils Ne Sont Pas Venus)
TTITLE3=Rispondimi Ie (Réponds-Moi Oui)
TTITLE4=Anu Lasciatu (Ils Ont Laissé)
TTITLE5=Amsterdam
TTITLE6=Quelli Chi Un Anu A Nimu (Ceux Qui Sont Seuls Au Monde)
TTITLE7=Tu Mi Dai A Manu (Si Tu Me Donnes La Main)
TTITLE8=Un Possu Piu (Je Ne Peux Plus)
TTITLE9=Un Ti Ne Scurda (N'oublie Pas)
TTITLE10=Vo Lu Mondu (Je Vais De Par Le Monde)
TTITLE11=Rifa I Passi (Refaire Les Pas)
TTITLE12=A Voce Rivolta (A Tue-Tete)
TTITLE13=Quantu Omu Po (Autant Que L'on Peut)
TTITLE14=U Lamentu Di Filicone (La Mort De Filicone)
TTITLE15=Terre D'oru (Fields Of Gold)
TTITLE16=Senti U Niolu (Entends Le Niolu)
TTITLE17=A Strada (Un Chemin)
EXTD=(P) and © 2000 Réédition\nEMI  7243 5 25343 2 6\nWeb site: http://w
EXTD=ww.muvrini.com\n\nFeatures songs from 1991 to 1999 (~ Best Of]\n\n
EXTD="IMuvrini" is a vocal band singing in "corse", a French regional 
EXTD=language \nCorse (Corsica) is an Island in the South of France YE
EXTD=AR: 2000
EXTT0=
EXTT1=
EXTT2=
EXTT3=
EXTT4=
EXTT5=Author: jacques Brel
EXTT6=
EXTT7=
EXTT8=
EXTT9=
EXTT10=
EXTT11=
EXTT12=
EXTT13=
EXTT14=
EXTT15=Featuring Sting
EXTT16=
EXTT17=
PLAYORDER=
